<?xml version="1.0" encoding="utf-8"?>
<!-- Generator: Adobe Illustrator 26.2.0, SVG Export Plug-In . SVG Version: 6.00 Build 0)  -->
<svg version="1.1"
	 id="svg2" inkscape:export-filename="/home/a/magnif.png" inkscape:export-xdpi="203.1774" inkscape:export-ydpi="203.1774" inkscape:version="0.48.4 r9939" sodipodi:docname="searx_logo.svg" xmlns:cc="http://creativecommons.org/ns#" xmlns:dc="http://purl.org/dc/elements/1.1/" xmlns:inkscape="http://www.inkscape.org/namespaces/inkscape" xmlns:rdf="http://www.w3.org/1999/02/22-rdf-syntax-ns#" xmlns:sodipodi="http://sodipodi.sourceforge.net/DTD/sodipodi-0.dtd" xmlns:svg="http://www.w3.org/2000/svg"
	 xmlns="http://www.w3.org/2000/svg" xmlns:xlink="http://www.w3.org/1999/xlink" x="0px" y="0px" viewBox="0 0 744.1 1052.4"
	 style="enable-background:new 0 0 744.1 1052.4;" xml:space="preserve">
<style type="text/css">
	.st0{fill:url(#path2987_00000071531236694791379190000015069552410104528258_);}
	.st1{fill:#FFFFFF;}
	.st2{fill:#FFFFFF;fill-opacity:0.8221;}
</style>
<sodipodi:namedview  bordercolor="#666666" borderopacity="1.0" id="base" inkscape:current-layer="layer1" inkscape:cx="30.708726" inkscape:cy="948.08556" inkscape:document-units="px" inkscape:guide-bbox="true" inkscape:pageopacity="0.0" inkscape:pageshadow="2" inkscape:window-height="663" inkscape:window-maximized="0" inkscape:window-width="1364" inkscape:window-x="0" inkscape:window-y="30" inkscape:zoom="1.979899" pagecolor="#ffffff" showgrid="false" showguides="true">
	</sodipodi:namedview>
<g id="layer1" inkscape:groupmode="layer" inkscape:label="Layer 1">
	<path id="rect3804" d="M192.3,173.7l12.1-13.9c4.1-4.7,20,2.5,35.6,16l130.5,113.3c15.6,13.6,25,28.3,20.9,33l-12.1,13.9
		c-4.1,4.7-20-2.5-35.6-16L213.1,206.7C197.5,193.1,188.2,178.4,192.3,173.7z"/>
	
		<radialGradient id="path2987_00000156558062619951770430000016793036585337183662_" cx="294.4595" cy="845.6202" r="107.5813" gradientTransform="matrix(1 0 0 -1 -107.0762 993.3909)" gradientUnits="userSpaceOnUse">
		<stop  offset="0" style="stop-color:#A9A9A9"/>
		<stop  offset="1" style="stop-color:#000000"/>
	</radialGradient>
	
		<path id="path2987" sodipodi:cx="294.45947" sodipodi:cy="208.37973" sodipodi:rx="107.58125" sodipodi:ry="107.58125" sodipodi:type="arc" style="fill:url(#path2987_00000156558062619951770430000016793036585337183662_);" d="
		M295,147.8c0,59.4-48.2,107.6-107.6,107.6S79.8,207.2,79.8,147.8S128,40.2,187.4,40.2S295,88.4,295,147.8z"/>
	
		<path id="path3757" sodipodi:cx="131.82491" sodipodi:cy="299.29346" sodipodi:rx="101.52033" sodipodi:ry="101.52033" sodipodi:type="arc" class="st1" d="
		M265.2,147.5c0,43.1-34.9,78-78,78c-43.1,0-78-34.9-78-78c0,0,0,0,0,0c0-43.1,34.9-78,78-78C230.2,69.5,265.2,104.4,265.2,147.5
		C265.2,147.5,265.2,147.5,265.2,147.5z"/>
	<path id="rect3916" class="st2" d="M264.7,207.8L264.7,207.8c0.5-0.5,4.2,2.1,8.4,5.8l119.3,105.3c4.2,3.7,7.2,7.1,6.8,7.6l0,0
		c-0.5,0.5-4.2-2.1-8.4-5.8L271.4,215.5C267.3,211.8,264.2,208.3,264.7,207.8z"/>
</g>
</svg>
